<svg width="103" height="108" viewBox="0 0 103 108" fill="none" xmlns="http://www.w3.org/2000/svg">
   <mask id="path-1-inside-1_1_10" fill="white">
   <path d="M97.0772 99.1873C97.2467 96.7335 97.5139 93.9919 97.6126 91.4427C97.7915 89.2434 97.6652 87.0275 97.2378 84.8689C97.016 84.0849 96.8453 83.285 96.727 82.475L96.7225 82.4404V82.319L96.7433 81.9453L96.8336 81.4128C96.8544 81.3042 97.045 80.5402 97.0003 80.6862C97.134 80.225 97.2937 79.7718 97.4558 79.3217L97.7575 78.5449L97.8214 78.383L97.8878 78.2356C98.3858 77.0938 98.9295 75.9891 99.4604 74.8757C100.648 72.4782 101.594 69.9495 102.284 67.3332C102.89 65.4366 102.985 63.3923 102.558 61.4392C101.609 58.5471 98.5799 60.9272 96.7289 62.7972C95.1538 64.413 93.6713 66.1316 92.2898 67.9435C93.7603 64.3766 94.9038 60.6617 95.7038 56.8525C96.0592 55.1479 96.1979 53.3986 96.116 51.6533C96.0139 50.2059 95.679 48.7891 95.1263 47.4668C94.8943 46.6733 94.497 45.9481 93.9653 45.3474C93.4335 44.7466 92.7815 44.2863 92.0595 44.0021C91.3376 43.7179 90.565 43.6173 89.8014 43.7081C89.0379 43.799 88.3038 44.0788 87.6559 44.5259C87.4844 43.599 87.2548 42.6858 86.9689 41.7926C86.6668 40.4006 85.9717 39.1452 84.9804 38.2013C83.9891 37.2575 82.7509 36.6721 81.4382 36.5267C79.5931 36.5376 77.7864 37.0994 76.2166 38.1504C76.1719 30.8992 75.2774 23.1317 71.2511 20.5379C70.0295 19.9624 68.7017 19.7005 67.3714 19.7725C66.0411 19.8445 64.744 20.2485 63.5814 20.9531C62.2285 17.962 60.2086 16.04 57.2568 16.7102C56.6141 16.8613 55.9883 17.0871 55.3902 17.3835L55.364 17.143C55.1296 13.6989 54.1954 10.3535 52.6284 7.34637C51.9983 6.10436 50.9635 5.16162 49.7263 4.70242C48.489 4.24321 47.1382 4.30055 45.9379 4.86321C44.3117 5.59919 42.8184 6.64097 41.5269 7.94044C41.0925 6.30873 40.432 4.75797 39.568 3.34121C39.0447 2.39891 38.3225 1.60468 37.4609 1.02382C36.5992 0.442959 35.6225 0.0920697 34.6113 0C32.0704 0.163053 29.6587 1.26923 27.7817 3.13258C21.9353 8.96541 17.3362 16.1128 14.3062 24.0742C12.475 28.223 10.6869 32.5025 9.14847 36.8239C7.24225 42.2241 5.61089 47.7336 4.26175 53.3275C2.02989 62.1933 0.634224 71.2817 0.0962069 80.453C-0.116033 83.913 0.0231429 87.3877 0.511229 90.8147C0.736324 92.2617 1.11856 93.6747 1.64998 95.0243C1.78113 95.3765 1.95275 95.7093 2.16078 96.0149C1.95614 95.7267 2.19271 96.0879 2.2192 96.1315L2.57389 96.6882C2.86962 97.1373 3.21918 97.5417 3.61336 97.8909C4.58657 98.6335 5.73525 99.0594 6.92424 99.1185C8.11323 99.1775 9.29305 98.8674 10.3249 98.2244C13.0222 96.6816 15.3942 94.5481 17.2906 91.9592C19.1886 89.5174 20.8743 86.8907 22.326 84.1126C23.8031 82.1395 25.2311 80.0673 26.61 77.8958C25.9517 80.7087 25.3075 83.522 24.6518 86.338C23.9066 89.5345 23.2072 92.7387 22.7529 95.9163C22.1059 99.1325 22.1463 102.466 22.871 105.663C23.013 106.216 23.2831 106.721 23.6557 107.128C24.0283 107.536 24.491 107.834 24.9997 107.994C26.4638 108.066 27.8966 107.52 28.9974 106.471C30.8081 105.001 32.4458 103.296 33.8739 101.394C34.285 102.319 35.0033 103.043 35.8851 103.419C37.9424 104.218 40.5928 102.506 42.8415 100.413C43.5898 99.7187 44.32 98.9693 45.0332 98.1746C44.8588 99.2607 44.7689 100.361 44.7644 101.463C44.6939 102.244 44.7733 103.031 44.9976 103.777C45.2219 104.522 45.5862 105.209 46.0675 105.794C46.6919 106.23 47.4264 106.443 48.1682 106.404C48.91 106.364 49.6217 106.074 50.2037 105.574C52.7652 103.568 55.0001 101.112 56.8163 98.3085C57.9908 96.6578 59.1318 94.9323 60.2415 93.1553C60.1303 94.0598 60.2626 94.9799 60.6223 95.8049C60.7637 96.0579 60.9522 96.2761 61.1759 96.4456C61.3995 96.6151 61.6533 96.7322 61.9211 96.7893C62.1888 96.8464 62.4646 96.8423 62.7309 96.7773C62.9971 96.7123 63.2479 96.5878 63.4672 96.4118C64.5874 95.7239 65.6329 94.902 66.584 93.9615C67.9491 92.7086 69.3072 91.4074 70.6343 89.9847C73.8301 86.513 76.6835 82.6899 79.1483 78.5774C81.6594 74.5508 83.7576 70.2391 85.4055 65.7191C86.8024 61.6246 87.6823 57.3443 88.0211 52.9944C88.1264 51.7251 88.1642 50.4503 88.1344 49.1764L88.4243 49.0432L88.6379 48.9574L88.9769 48.8598C89.2817 48.7948 89.5924 48.769 89.9028 48.783L89.9813 48.7906L90.3772 48.9048L90.7603 49.0702L90.9154 49.1591C91.1647 49.354 91.3931 49.5786 91.5964 49.8286L91.8862 50.2136L92.081 50.5596C92.2913 50.9521 92.4745 51.3609 92.6291 51.7827L92.8794 52.5228C92.7345 52.0834 92.8772 52.5574 92.8973 52.6401L93.0078 53.2732L93.0458 53.5846C93.0285 53.4206 93.0585 53.8227 93.0608 53.9022C93.0703 54.2576 93.0608 54.6288 93.0435 55.0001L93.0023 55.572L92.9838 55.7363C92.9254 56.2089 92.8478 56.6861 92.7603 57.1618L92.5021 58.4281L92.3511 59.073L92.2428 59.4972C92.0018 60.3968 91.7298 61.2849 91.4348 62.1679C90.7248 64.2881 89.9024 66.3647 89.0405 68.4064L88.8748 68.7974L88.5386 69.5717L87.8861 71.0422C87.4021 72.1265 86.9034 73.1873 86.3598 74.2208C85.0286 76.6948 83.5673 79.0839 81.9832 81.3761C80.304 83.8946 78.6193 86.421 77.0668 89.1335C76.7836 89.6238 76.6045 90.176 76.5423 90.7504C76.4801 91.3248 76.5363 91.9071 76.707 92.455C77.1884 93.5491 78.1893 93.2595 79.0733 92.2575C82.1751 88.596 85.0669 84.7318 87.7322 80.6866C90.3561 76.8603 92.9525 72.9129 95.7772 69.5222L96.5067 68.6701L96.8732 68.2507L97.03 68.0777C97.5088 67.5622 97.9954 67.0719 98.4883 66.6225L99.152 66.0634L99.2267 66.0066C99.1469 66.4751 99.0409 66.947 98.9289 67.4172L98.8953 67.5636L98.8315 67.7836L98.585 68.5735C98.4104 69.1053 98.2051 69.6271 97.996 70.1436L97.9558 70.244L97.8571 70.4657L97.5025 71.2411L96.643 73.0489C95.4907 75.253 94.5324 77.5698 93.781 79.9687C93.3722 81.3242 93.1328 82.7331 93.0694 84.1575C93.0699 85.2159 93.2046 86.2691 93.4697 87.2877L93.7484 88.4063L93.8605 88.8965L93.9291 89.1069L93.9352 89.209C94.0166 90.4262 94.0591 91.6655 94.0629 92.9301C94.0674 95.5098 93.9537 98.187 93.7701 100.851C93.6744 102.235 94.5363 102.927 95.3814 102.502C95.8928 102.142 96.3148 101.652 96.6105 101.074C96.9062 100.496 97.0664 99.848 97.0772 99.1873ZM78.4236 42.75L78.5005 42.7261L79.0525 42.6019L79.8529 42.5088C79.9844 42.4998 80.1111 42.5023 80.2395 42.504L80.4719 42.5203C80.8596 42.597 81.2348 42.7355 81.5851 42.9313L81.7821 43.0697L82.0742 43.3406C82.273 43.5438 82.4546 43.7659 82.6169 44.0042L82.6693 44.0897L82.9029 44.5121C83.0821 44.858 83.2432 45.2144 83.3856 45.5798L83.6573 46.3503L83.7566 46.7081L83.8843 47.2579L83.9162 47.4091C81.8368 49.5298 79.933 51.8442 78.2269 54.3257C76.4391 56.84 74.7353 59.5155 73.1052 62.2952C74.1861 58.3736 74.9901 54.3685 75.5105 50.3147C75.7703 48.1415 75.9574 45.9843 76.0749 43.8592C76.5566 43.5757 77.0516 43.3193 77.5578 43.0911L78.4236 42.75ZM66.9913 25.5166C67.1436 25.5108 67.2946 25.5166 67.4437 25.525L67.6991 25.5537C67.9898 25.6085 68.276 25.6882 68.555 25.7921L69.1823 26.0927L69.4272 26.2619L69.711 26.5179L70.1899 27.0691L70.3125 27.239C70.1899 27.0611 70.4402 27.4497 70.4887 27.539C70.7729 28.0668 71.0154 28.6197 71.2137 29.1917L71.3698 29.6571L71.4461 29.9131L71.7015 30.9604C72.0487 32.5957 72.2851 34.2562 72.4086 35.9288L72.4355 36.2589L72.4674 36.7889L72.5264 38.1245C72.5584 38.9773 72.5683 39.844 72.5683 40.7159C70.2111 42.6977 68.0315 44.9158 66.0585 47.3409L65.4775 48.0498C65.8141 45.835 66.0338 43.6011 66.1354 41.3591C66.2993 37.5107 66.1641 33.6542 65.7313 29.8304C65.5808 28.4742 65.3662 27.1272 65.0883 25.7948C65.7114 25.627 66.3495 25.5337 66.9913 25.5166ZM55.8138 22.4678L56.1803 22.3256L56.2528 22.308L56.9982 22.1841L57.5585 22.1806L58.2008 22.372L58.7033 22.6318L59.1557 23.0383L59.5299 23.4587C58.2365 24.4648 57.0208 25.5834 55.8949 26.8034C55.8911 25.344 55.8812 23.8881 55.8138 22.4678ZM44.3264 74.4318C43.9289 75.5307 43.5142 76.6233 43.0893 77.7107L42.4316 79.3583L42.0929 80.1821L41.8634 80.7274L41.8065 80.8585C40.8258 83.1376 39.7742 85.3692 38.6597 87.5333C38.1285 88.5644 37.5762 89.5726 37.0118 90.5632L36.3883 91.6357C36.4042 90.9479 36.439 90.2518 36.4792 89.5598L36.5728 88.325L36.6264 87.6953L36.6555 87.396C36.7481 86.5203 36.8556 85.6384 36.9747 84.7547C37.444 81.2294 38.0956 77.6592 38.8583 74.1017C39.1682 72.6548 39.5019 71.2095 39.8594 69.7658L39.9967 69.2243L40.2125 68.4254C40.5056 67.3492 40.812 66.2766 41.1316 65.2077C42.4482 60.7601 43.965 56.3556 45.65 52.0529C46.0667 50.9864 46.4965 49.9286 46.9394 48.8795L47.0173 48.6934L47.0716 48.5643L47.4103 47.7834L48.2177 45.9843C49.1712 43.8931 50.189 41.849 51.261 39.8707L52.0518 38.4521L52.0004 39.0929C51.8181 41.2806 51.5535 43.5561 51.2125 46.0307C50.8716 48.5052 50.4601 50.9904 49.9933 53.4846C49.108 58.2733 47.97 63.003 46.585 67.6504C45.9025 69.9374 45.1379 72.1936 44.3264 74.4318ZM43.5991 11.5276L44.251 11.027L44.5214 10.8464L45.0571 10.5277L45.8437 10.1437L46.027 10.07L46.2789 9.99111L47.0074 9.88731H47.3333L47.5297 9.93333C47.7812 10.0009 48.0254 10.0968 48.2585 10.2195L48.4798 10.3513L48.6678 10.5032C48.8815 10.6874 49.081 10.8902 49.2645 11.1093L49.5393 11.4623L49.6776 11.6577L49.7095 11.7107C50.0567 12.3048 50.3534 12.9319 50.5957 13.5842L50.9651 14.6568L50.9951 14.7523L51.0325 14.881L51.2333 15.6667C51.552 17.0126 51.7954 18.3782 51.9621 19.7559C48.5543 23.0488 45.597 26.8513 43.1793 31.0487L42.6889 31.8669C43.0548 28.0687 43.1882 24.2483 43.0883 20.431C43.0349 17.7794 42.8284 15.1341 42.4699 12.5106C42.8454 12.1643 43.2202 11.839 43.5991 11.5276ZM31.6624 58.481C30.8697 61.1029 30.1364 63.7325 29.444 66.3647L28.6028 67.993C28.2072 67.5432 27.4177 67.7743 26.9899 68.978C26.3514 70.7771 25.6593 72.5763 24.9148 74.3443L24.0529 75.6649C22.7899 77.5678 21.4753 79.3729 20.128 81.1C19.4755 81.9384 18.8127 82.7476 18.1445 83.5406L17.1306 84.7191L16.6182 85.2924L16.3628 85.5723L16.1907 85.7615C14.8541 87.2085 13.4886 88.5779 12.128 89.9259C11.5283 90.5265 10.8978 91.0901 10.2397 91.6139L9.975 91.8018L9.6449 91.9945L9.21934 92.1969L9.0163 92.2291L8.89882 92.226L8.66162 92.1084C8.95852 92.2668 8.87711 92.207 8.77559 92.1215L8.63895 91.8918L8.5917 91.7624L8.51476 91.5067C8.64246 91.9371 8.54062 91.5811 8.50583 91.4323L8.35769 90.5455L8.34364 90.3999L8.33758 90.2476C8.32577 89.9497 8.32864 89.6439 8.33407 89.3363L8.38068 88.362L8.39249 88.2018L8.43974 87.7358C8.64815 86.114 8.94148 84.5063 9.31831 82.9206L9.61425 81.6858L9.70651 81.3232L9.78601 81.0156C10.0325 80.0884 10.2968 79.1656 10.5672 78.2477C12.4798 71.785 14.9751 65.5956 17.204 59.2626C18.9459 54.3122 20.7605 49.3878 22.7398 44.5581C24.6485 39.8887 26.795 35.3378 29.1691 30.9262C31.0878 27.4339 33.2098 24.0776 35.5221 20.8776C36.5632 19.4041 37.6292 17.9803 38.7204 16.622L39.2969 15.9162C39.4313 16.914 39.5351 17.9357 39.6162 18.9719L39.6417 19.3252L39.6775 19.9134L39.7333 21.0994C39.7678 21.962 39.7847 22.8366 39.7911 23.714C39.8029 25.3845 39.7624 27.085 39.6784 28.8001C39.6408 29.6007 39.5884 30.4069 39.5303 31.2144L39.4345 32.4056L39.3815 32.9938L39.3512 33.31C39.1951 34.8307 38.9924 36.3672 38.7446 37.9089C38.6148 38.7197 38.4709 39.5336 38.313 40.3506C35.7125 46.2204 33.4901 52.2782 31.6624 58.481ZM3.96229 90.9064L3.84832 90.5459C3.91409 90.759 3.79213 90.3324 3.78256 90.2902L3.55908 89.3079C3.4068 88.5682 3.29698 87.7897 3.20791 86.9933L3.1131 86.001L3.08564 85.611L3.05531 85.0139C3.01317 84.1382 3.00264 83.2448 3.00519 82.3466C3.01253 80.5987 3.10096 78.8068 3.23505 77.0022L3.34136 75.7137L3.39914 75.0712L3.43522 74.7006C3.52397 73.8472 3.62315 72.9916 3.73276 72.1337C3.99773 70.0201 4.31793 67.8885 4.664 65.76C5.53811 60.3698 6.6852 55.0358 8.10006 49.7822C9.4962 44.5633 11.1806 39.4401 13.1442 34.4404C14.8403 30.1602 16.2255 26.8238 18.1793 22.7197C19.1371 20.7088 20.1494 18.7425 21.2173 16.8472L21.9835 15.5242L22.3733 14.8792L22.6351 14.4616C23.1711 13.6178 23.7301 12.8064 24.3009 12.0245C24.8379 11.2872 25.3975 10.5921 25.9664 9.93022L26.2458 9.61329L26.5701 9.2756L27.6236 8.24629C28.1885 7.71583 28.7783 7.2174 29.3907 6.753L29.67 6.54748L29.9436 6.37241L30.863 5.84098L31.6174 5.49741L31.9807 5.36109L32.0347 5.3476C32.5062 5.22034 32.9905 5.15781 33.4764 5.16146L33.7481 5.17426L33.7899 5.18187L34.3706 5.33445L34.921 5.5673L35.1841 5.71262L35.2498 5.74963C35.5909 6.00683 35.925 6.31589 36.2076 6.64609L36.6341 7.18964L36.7528 7.35675C36.6401 7.19275 36.8719 7.55224 36.9176 7.62732C37.4819 8.6387 37.9359 9.71769 38.2705 10.8426L38.3344 11.0554L38.3858 11.2481C36.1648 13.8438 34.094 16.5858 32.185 19.4584C29.4891 23.3951 27.0373 27.5214 24.8459 31.8102C22.4423 36.5471 20.3004 41.5487 18.2994 46.5901C17.3321 49.028 16.4059 51.4876 15.5002 53.9597C14.6976 56.1508 13.9557 58.3831 13.1253 60.5601C12.0718 63.3149 11.0263 66.0727 10.035 68.8559C8.80113 72.3185 7.65439 75.8292 6.68771 79.3739C5.65005 82.9155 4.95179 86.5634 4.60398 90.2601C4.55067 90.9778 4.53734 91.6983 4.56407 92.4177C4.33231 91.9293 4.13104 91.4242 3.96229 90.9064ZM30.8429 99.206L30.811 99.2433L30.7535 99.3032L30.3545 99.7256L29.4015 100.663L28.5807 101.385L28.1747 101.705L27.9869 101.839L27.3389 102.202L27.2112 102.257L26.8766 102.341L26.7358 102.35L26.6273 102.309L26.4565 102.131L26.3288 101.984L26.1126 101.432L26.0261 100.963L25.953 100.289C25.9316 99.6921 25.9476 99.069 25.9776 98.4458L26.0571 97.3421L26.0603 97.2982L26.1241 96.738C26.2266 95.8769 26.3604 95.0081 26.5053 94.1369C27.0161 91.0683 27.7258 87.9835 28.4422 84.9097C29.4481 80.5883 30.3918 76.2669 31.4521 71.9486C31.7432 70.7589 32.0422 69.571 32.3491 68.385L32.5113 67.7622L32.7581 66.828L32.7859 66.7221C36.4411 59.0345 39.2096 50.8887 41.0292 42.4684C42.0278 40.2599 43.1094 38.1331 44.2411 36.0561C44.6242 35.359 45.015 34.6788 45.4147 34.0055L45.944 33.1343L46.1244 32.8475L46.585 32.1358C47.5838 30.6111 48.6267 29.1709 49.7136 27.8151L50.5079 26.8549L50.9124 26.391L51.1311 26.146C51.5395 25.7077 51.9527 25.2904 52.3707 24.8939L52.4081 26.0308C52.453 27.7277 52.4565 29.4468 52.4186 31.1881C50.67 33.7994 49.0794 36.531 47.6571 39.3655C45.4759 43.696 43.5284 48.1599 41.8244 52.7349C39.0162 60.0913 36.7783 67.6885 35.1339 75.4476C34.3815 79.0504 33.758 82.658 33.3142 86.2172C32.8114 89.7278 32.6461 93.2856 32.821 96.8332L32.2502 97.5535C31.7885 98.1242 31.3184 98.6745 30.8429 99.206ZM44.8499 92.5976L44.0869 93.5138L43.6978 93.9587L43.5171 94.1594L43.4733 94.2078C42.9536 94.7693 42.4236 95.2921 41.8889 95.7859L41.0997 96.4706L40.7109 96.7792L40.3348 97.056C39.924 97.3222 39.4931 97.5501 39.0466 97.7372L38.8717 97.7988L38.7025 97.8362L38.1515 97.8895L37.7013 97.7694L37.5934 97.7224L37.4581 97.6251L37.0906 97.21C37.1864 97.3345 37.1165 97.1985 37.0312 97.0318C41.6981 89.5257 45.4551 81.4004 48.2097 72.8558C51.4083 63.3013 53.6275 53.3944 54.8274 43.3139C55.2628 39.7946 55.5779 36.2862 55.7497 32.8395L55.8908 32.6558L56.7023 31.6725L56.9784 31.3594L57.4286 30.8885C58.0438 30.2525 58.6736 29.6775 59.309 29.136L60.2948 28.3403L60.7966 27.9666L60.9422 27.8628L61.173 27.7088L61.3748 27.5784L61.4904 28.0417C61.9019 29.7676 62.2006 31.5229 62.3843 33.2945L62.518 34.6379L62.5576 35.1358L62.5895 35.5894C62.6534 36.5582 62.6927 37.5439 62.7134 38.5369C62.7501 40.2942 62.7224 42.0936 62.6269 43.917C62.5882 44.657 62.535 45.4015 62.4673 46.1507L62.4494 46.296L62.3479 47.0607L62.0768 48.8792C61.6937 51.3011 61.2225 53.6649 60.6833 55.9747L60.1406 57.0961C57.8072 61.9548 55.629 66.9591 53.5472 72.0057C51.3779 77.2609 49.3146 82.6248 47.5747 88.0855L47.0958 89.6328L46.3057 90.7244C45.831 91.3679 45.3412 91.9907 44.8499 92.5976ZM46.2779 92.5149C46.3338 92.3014 46.4643 91.7855 46.2779 92.5149ZM64.1957 78.165L63.9665 78.7054L63.6932 79.3352L62.9822 80.9229C62.4782 82.0301 61.9568 83.1226 61.4179 84.2004C60.8011 85.437 60.1039 86.6071 59.4175 87.7596L58.3266 89.5467L58.1147 89.8833L57.7695 90.4223L56.943 91.6914C55.9342 93.2138 54.8941 94.6891 53.8233 96.0907C53.3349 96.7317 52.8363 97.3494 52.3276 97.9438L51.9634 98.3631L51.9209 98.4116L51.1167 99.2257L50.4534 99.8197L49.9924 100.162L49.6249 100.356L49.4653 100.425L48.9143 100.494L48.7473 100.43L48.6691 100.347L48.6094 100.207L48.5513 99.8585L48.5423 99.7841L48.5379 99.4848C48.5379 99.1513 48.5554 98.8098 48.5826 98.4617L48.6739 97.7826C48.815 96.8228 49.0145 95.8516 49.2361 94.8853L49.418 94.1241L49.5346 93.6708L49.9355 92.2288L50.2723 91.0794C51.9997 88.2765 53.5597 85.3566 54.9426 82.3376C58.4171 74.7758 61.2061 66.8663 63.2705 58.7205C63.9291 57.369 64.604 56.0269 65.3261 54.7454L65.5793 54.3105L65.9803 53.7476C66.9517 52.4069 67.9711 51.1696 69.0067 50.0002L69.2398 49.7414L69.5169 49.4431L70.3728 48.555C71.0059 47.9101 71.6498 47.3015 72.2963 46.7212L72.3694 46.6569L72.3627 46.7493C72.3058 47.6142 72.235 48.4844 72.1529 49.3559L72.1328 49.5718L72.0792 50.077L71.9119 51.4672C71.682 53.286 71.3609 55.1118 70.9762 56.9487C70.7393 58.0904 70.4708 59.2322 70.1899 60.3708L69.9983 61.132C70.0842 60.7905 69.8706 61.6112 69.8646 61.632L69.2947 63.6844C68.5853 66.1575 67.7895 68.6126 66.9358 71.0397C66.0901 73.4478 65.17 75.8237 64.1957 78.165ZM81.8801 65.3707L81.4673 66.436C81.3892 66.5914 81.3184 66.751 81.2553 66.9142L80.8879 67.721C80.3553 68.8766 79.797 70.0111 79.222 71.128C78.694 72.1559 78.1446 73.1593 77.5824 74.1464L76.7274 75.6078L76.292 76.3247L76.1643 76.5323L75.9507 76.8641C74.7322 78.7664 73.4215 80.5973 72.0239 82.3491C70.7873 83.9294 69.4456 85.4095 68.0097 86.7777C66.8419 87.9139 65.6597 89.037 64.468 90.0373L64.2739 90.1943L64.4223 89.5328L64.5338 89.0765C64.4645 89.3581 64.6346 88.6976 64.6615 88.6021C64.8326 87.9693 65.0155 87.3444 65.2253 86.723C65.5001 85.912 65.8018 85.1076 66.1147 84.3115L66.6529 82.9698L66.9495 82.2608L67.0542 82.0055C67.5293 80.9018 68.0206 79.8092 68.5199 78.7186C70.9168 73.5149 73.5506 68.5306 76.3335 63.7352L77.387 61.9523L77.9179 61.0784L78.1845 60.6462L78.2569 60.5314C78.9895 59.3693 79.7392 58.2379 80.506 57.1372C80.7883 56.7324 81.0577 56.347 81.3252 55.9117C80.8674 56.6566 81.4619 55.7962 81.5873 55.6297L82.7567 54.1188L83.8237 52.8362L84.1598 52.4557L84.3555 52.2505C84.3488 53.1155 84.3048 53.9998 84.2368 54.8928L84.1972 55.3509C84.2195 55.0921 84.1637 55.6682 84.1525 55.7661L83.9609 57.1801C83.8109 58.1984 83.6152 59.226 83.3943 60.2504L83.1389 61.3444L83.029 61.7832L82.8333 62.4696C82.5515 63.4487 82.2303 64.4172 81.8801 65.3707ZM99.3024 65.306C99.2634 65.1493 99.2085 65.0507 99.3024 65.306Z"/>
   </mask>
   <path d="M97.0772 99.1873C97.2467 96.7335 97.5139 93.9919 97.6126 91.4427C97.7915 89.2434 97.6652 87.0275 97.2378 84.8689C97.016 84.0849 96.8453 83.285 96.727 82.475L96.7225 82.4404V82.319L96.7433 81.9453L96.8336 81.4128C96.8544 81.3042 97.045 80.5402 97.0003 80.6862C97.134 80.225 97.2937 79.7718 97.4558 79.3217L97.7575 78.5449L97.8214 78.383L97.8878 78.2356C98.3858 77.0938 98.9295 75.9891 99.4604 74.8757C100.648 72.4782 101.594 69.9495 102.284 67.3332C102.89 65.4366 102.985 63.3923 102.558 61.4392C101.609 58.5471 98.5799 60.9272 96.7289 62.7972C95.1538 64.413 93.6713 66.1316 92.2898 67.9435C93.7603 64.3766 94.9038 60.6617 95.7038 56.8525C96.0592 55.1479 96.1979 53.3986 96.116 51.6533C96.0139 50.2059 95.679 48.7891 95.1263 47.4668C94.8943 46.6733 94.497 45.9481 93.9653 45.3474C93.4335 44.7466 92.7815 44.2863 92.0595 44.0021C91.3376 43.7179 90.565 43.6173 89.8014 43.7081C89.0379 43.799 88.3038 44.0788 87.6559 44.5259C87.4844 43.599 87.2548 42.6858 86.9689 41.7926C86.6668 40.4006 85.9717 39.1452 84.9804 38.2013C83.9891 37.2575 82.7509 36.6721 81.4382 36.5267C79.5931 36.5376 77.7864 37.0994 76.2166 38.1504C76.1719 30.8992 75.2774 23.1317 71.2511 20.5379C70.0295 19.9624 68.7017 19.7005 67.3714 19.7725C66.0411 19.8445 64.744 20.2485 63.5814 20.9531C62.2285 17.962 60.2086 16.04 57.2568 16.7102C56.6141 16.8613 55.9883 17.0871 55.3902 17.3835L55.364 17.143C55.1296 13.6989 54.1954 10.3535 52.6284 7.34637C51.9983 6.10436 50.9635 5.16162 49.7263 4.70242C48.489 4.24321 47.1382 4.30055 45.9379 4.86321C44.3117 5.59919 42.8184 6.64097 41.5269 7.94044C41.0925 6.30873 40.432 4.75797 39.568 3.34121C39.0447 2.39891 38.3225 1.60468 37.4609 1.02382C36.5992 0.442959 35.6225 0.0920697 34.6113 0C32.0704 0.163053 29.6587 1.26923 27.7817 3.13258C21.9353 8.96541 17.3362 16.1128 14.3062 24.0742C12.475 28.223 10.6869 32.5025 9.14847 36.8239C7.24225 42.2241 5.61089 47.7336 4.26175 53.3275C2.02989 62.1933 0.634224 71.2817 0.0962069 80.453C-0.116033 83.913 0.0231429 87.3877 0.511229 90.8147C0.736324 92.2617 1.11856 93.6747 1.64998 95.0243C1.78113 95.3765 1.95275 95.7093 2.16078 96.0149C1.95614 95.7267 2.19271 96.0879 2.2192 96.1315L2.57389 96.6882C2.86962 97.1373 3.21918 97.5417 3.61336 97.8909C4.58657 98.6335 5.73525 99.0594 6.92424 99.1185C8.11323 99.1775 9.29305 98.8674 10.3249 98.2244C13.0222 96.6816 15.3942 94.5481 17.2906 91.9592C19.1886 89.5174 20.8743 86.8907 22.326 84.1126C23.8031 82.1395 25.2311 80.0673 26.61 77.8958C25.9517 80.7087 25.3075 83.522 24.6518 86.338C23.9066 89.5345 23.2072 92.7387 22.7529 95.9163C22.1059 99.1325 22.1463 102.466 22.871 105.663C23.013 106.216 23.2831 106.721 23.6557 107.128C24.0283 107.536 24.491 107.834 24.9997 107.994C26.4638 108.066 27.8966 107.52 28.9974 106.471C30.8081 105.001 32.4458 103.296 33.8739 101.394C34.285 102.319 35.0033 103.043 35.8851 103.419C37.9424 104.218 40.5928 102.506 42.8415 100.413C43.5898 99.7187 44.32 98.9693 45.0332 98.1746C44.8588 99.2607 44.7689 100.361 44.7644 101.463C44.6939 102.244 44.7733 103.031 44.9976 103.777C45.2219 104.522 45.5862 105.209 46.0675 105.794C46.6919 106.23 47.4264 106.443 48.1682 106.404C48.91 106.364 49.6217 106.074 50.2037 105.574C52.7652 103.568 55.0001 101.112 56.8163 98.3085C57.9908 96.6578 59.1318 94.9323 60.2415 93.1553C60.1303 94.0598 60.2626 94.9799 60.6223 95.8049C60.7637 96.0579 60.9522 96.2761 61.1759 96.4456C61.3995 96.6151 61.6533 96.7322 61.9211 96.7893C62.1888 96.8464 62.4646 96.8423 62.7309 96.7773C62.9971 96.7123 63.2479 96.5878 63.4672 96.4118C64.5874 95.7239 65.6329 94.902 66.584 93.9615C67.9491 92.7086 69.3072 91.4074 70.6343 89.9847C73.8301 86.513 76.6835 82.6899 79.1483 78.5774C81.6594 74.5508 83.7576 70.2391 85.4055 65.7191C86.8024 61.6246 87.6823 57.3443 88.0211 52.9944C88.1264 51.7251 88.1642 50.4503 88.1344 49.1764L88.4243 49.0432L88.6379 48.9574L88.9769 48.8598C89.2817 48.7948 89.5924 48.769 89.9028 48.783L89.9813 48.7906L90.3772 48.9048L90.7603 49.0702L90.9154 49.1591C91.1647 49.354 91.3931 49.5786 91.5964 49.8286L91.8862 50.2136L92.081 50.5596C92.2913 50.9521 92.4745 51.3609 92.6291 51.7827L92.8794 52.5228C92.7345 52.0834 92.8772 52.5574 92.8973 52.6401L93.0078 53.2732L93.0458 53.5846C93.0285 53.4206 93.0585 53.8227 93.0608 53.9022C93.0703 54.2576 93.0608 54.6288 93.0435 55.0001L93.0023 55.572L92.9838 55.7363C92.9254 56.2089 92.8478 56.6861 92.7603 57.1618L92.5021 58.4281L92.3511 59.073L92.2428 59.4972C92.0018 60.3968 91.7298 61.2849 91.4348 62.1679C90.7248 64.2881 89.9024 66.3647 89.0405 68.4064L88.8748 68.7974L88.5386 69.5717L87.8861 71.0422C87.4021 72.1265 86.9034 73.1873 86.3598 74.2208C85.0286 76.6948 83.5673 79.0839 81.9832 81.3761C80.304 83.8946 78.6193 86.421 77.0668 89.1335C76.7836 89.6238 76.6045 90.176 76.5423 90.7504C76.4801 91.3248 76.5363 91.9071 76.707 92.455C77.1884 93.5491 78.1893 93.2595 79.0733 92.2575C82.1751 88.596 85.0669 84.7318 87.7322 80.6866C90.3561 76.8603 92.9525 72.9129 95.7772 69.5222L96.5067 68.6701L96.8732 68.2507L97.03 68.0777C97.5088 67.5622 97.9954 67.0719 98.4883 66.6225L99.152 66.0634L99.2267 66.0066C99.1469 66.4751 99.0409 66.947 98.9289 67.4172L98.8953 67.5636L98.8315 67.7836L98.585 68.5735C98.4104 69.1053 98.2051 69.6271 97.996 70.1436L97.9558 70.244L97.8571 70.4657L97.5025 71.2411L96.643 73.0489C95.4907 75.253 94.5324 77.5698 93.781 79.9687C93.3722 81.3242 93.1328 82.7331 93.0694 84.1575C93.0699 85.2159 93.2046 86.2691 93.4697 87.2877L93.7484 88.4063L93.8605 88.8965L93.9291 89.1069L93.9352 89.209C94.0166 90.4262 94.0591 91.6655 94.0629 92.9301C94.0674 95.5098 93.9537 98.187 93.7701 100.851C93.6744 102.235 94.5363 102.927 95.3814 102.502C95.8928 102.142 96.3148 101.652 96.6105 101.074C96.9062 100.496 97.0664 99.848 97.0772 99.1873ZM78.4236 42.75L78.5005 42.7261L79.0525 42.6019L79.8529 42.5088C79.9844 42.4998 80.1111 42.5023 80.2395 42.504L80.4719 42.5203C80.8596 42.597 81.2348 42.7355 81.5851 42.9313L81.7821 43.0697L82.0742 43.3406C82.273 43.5438 82.4546 43.7659 82.6169 44.0042L82.6693 44.0897L82.9029 44.5121C83.0821 44.858 83.2432 45.2144 83.3856 45.5798L83.6573 46.3503L83.7566 46.7081L83.8843 47.2579L83.9162 47.4091C81.8368 49.5298 79.933 51.8442 78.2269 54.3257C76.4391 56.84 74.7353 59.5155 73.1052 62.2952C74.1861 58.3736 74.9901 54.3685 75.5105 50.3147C75.7703 48.1415 75.9574 45.9843 76.0749 43.8592C76.5566 43.5757 77.0516 43.3193 77.5578 43.0911L78.4236 42.75ZM66.9913 25.5166C67.1436 25.5108 67.2946 25.5166 67.4437 25.525L67.6991 25.5537C67.9898 25.6085 68.276 25.6882 68.555 25.7921L69.1823 26.0927L69.4272 26.2619L69.711 26.5179L70.1899 27.0691L70.3125 27.239C70.1899 27.0611 70.4402 27.4497 70.4887 27.539C70.7729 28.0668 71.0154 28.6197 71.2137 29.1917L71.3698 29.6571L71.4461 29.9131L71.7015 30.9604C72.0487 32.5957 72.2851 34.2562 72.4086 35.9288L72.4355 36.2589L72.4674 36.7889L72.5264 38.1245C72.5584 38.9773 72.5683 39.844 72.5683 40.7159C70.2111 42.6977 68.0315 44.9158 66.0585 47.3409L65.4775 48.0498C65.8141 45.835 66.0338 43.6011 66.1354 41.3591C66.2993 37.5107 66.1641 33.6542 65.7313 29.8304C65.5808 28.4742 65.3662 27.1272 65.0883 25.7948C65.7114 25.627 66.3495 25.5337 66.9913 25.5166ZM55.8138 22.4678L56.1803 22.3256L56.2528 22.308L56.9982 22.1841L57.5585 22.1806L58.2008 22.372L58.7033 22.6318L59.1557 23.0383L59.5299 23.4587C58.2365 24.4648 57.0208 25.5834 55.8949 26.8034C55.8911 25.344 55.8812 23.8881 55.8138 22.4678ZM44.3264 74.4318C43.9289 75.5307 43.5142 76.6233 43.0893 77.7107L42.4316 79.3583L42.0929 80.1821L41.8634 80.7274L41.8065 80.8585C40.8258 83.1376 39.7742 85.3692 38.6597 87.5333C38.1285 88.5644 37.5762 89.5726 37.0118 90.5632L36.3883 91.6357C36.4042 90.9479 36.439 90.2518 36.4792 89.5598L36.5728 88.325L36.6264 87.6953L36.6555 87.396C36.7481 86.5203 36.8556 85.6384 36.9747 84.7547C37.444 81.2294 38.0956 77.6592 38.8583 74.1017C39.1682 72.6548 39.5019 71.2095 39.8594 69.7658L39.9967 69.2243L40.2125 68.4254C40.5056 67.3492 40.812 66.2766 41.1316 65.2077C42.4482 60.7601 43.965 56.3556 45.65 52.0529C46.0667 50.9864 46.4965 49.9286 46.9394 48.8795L47.0173 48.6934L47.0716 48.5643L47.4103 47.7834L48.2177 45.9843C49.1712 43.8931 50.189 41.849 51.261 39.8707L52.0518 38.4521L52.0004 39.0929C51.8181 41.2806 51.5535 43.5561 51.2125 46.0307C50.8716 48.5052 50.4601 50.9904 49.9933 53.4846C49.108 58.2733 47.97 63.003 46.585 67.6504C45.9025 69.9374 45.1379 72.1936 44.3264 74.4318ZM43.5991 11.5276L44.251 11.027L44.5214 10.8464L45.0571 10.5277L45.8437 10.1437L46.027 10.07L46.2789 9.99111L47.0074 9.88731H47.3333L47.5297 9.93333C47.7812 10.0009 48.0254 10.0968 48.2585 10.2195L48.4798 10.3513L48.6678 10.5032C48.8815 10.6874 49.081 10.8902 49.2645 11.1093L49.5393 11.4623L49.6776 11.6577L49.7095 11.7107C50.0567 12.3048 50.3534 12.9319 50.5957 13.5842L50.9651 14.6568L50.9951 14.7523L51.0325 14.881L51.2333 15.6667C51.552 17.0126 51.7954 18.3782 51.9621 19.7559C48.5543 23.0488 45.597 26.8513 43.1793 31.0487L42.6889 31.8669C43.0548 28.0687 43.1882 24.2483 43.0883 20.431C43.0349 17.7794 42.8284 15.1341 42.4699 12.5106C42.8454 12.1643 43.2202 11.839 43.5991 11.5276ZM31.6624 58.481C30.8697 61.1029 30.1364 63.7325 29.444 66.3647L28.6028 67.993C28.2072 67.5432 27.4177 67.7743 26.9899 68.978C26.3514 70.7771 25.6593 72.5763 24.9148 74.3443L24.0529 75.6649C22.7899 77.5678 21.4753 79.3729 20.128 81.1C19.4755 81.9384 18.8127 82.7476 18.1445 83.5406L17.1306 84.7191L16.6182 85.2924L16.3628 85.5723L16.1907 85.7615C14.8541 87.2085 13.4886 88.5779 12.128 89.9259C11.5283 90.5265 10.8978 91.0901 10.2397 91.6139L9.975 91.8018L9.6449 91.9945L9.21934 92.1969L9.0163 92.2291L8.89882 92.226L8.66162 92.1084C8.95852 92.2668 8.87711 92.207 8.77559 92.1215L8.63895 91.8918L8.5917 91.7624L8.51476 91.5067C8.64246 91.9371 8.54062 91.5811 8.50583 91.4323L8.35769 90.5455L8.34364 90.3999L8.33758 90.2476C8.32577 89.9497 8.32864 89.6439 8.33407 89.3363L8.38068 88.362L8.39249 88.2018L8.43974 87.7358C8.64815 86.114 8.94148 84.5063 9.31831 82.9206L9.61425 81.6858L9.70651 81.3232L9.78601 81.0156C10.0325 80.0884 10.2968 79.1656 10.5672 78.2477C12.4798 71.785 14.9751 65.5956 17.204 59.2626C18.9459 54.3122 20.7605 49.3878 22.7398 44.5581C24.6485 39.8887 26.795 35.3378 29.1691 30.9262C31.0878 27.4339 33.2098 24.0776 35.5221 20.8776C36.5632 19.4041 37.6292 17.9803 38.7204 16.622L39.2969 15.9162C39.4313 16.914 39.5351 17.9357 39.6162 18.9719L39.6417 19.3252L39.6775 19.9134L39.7333 21.0994C39.7678 21.962 39.7847 22.8366 39.7911 23.714C39.8029 25.3845 39.7624 27.085 39.6784 28.8001C39.6408 29.6007 39.5884 30.4069 39.5303 31.2144L39.4345 32.4056L39.3815 32.9938L39.3512 33.31C39.1951 34.8307 38.9924 36.3672 38.7446 37.9089C38.6148 38.7197 38.4709 39.5336 38.313 40.3506C35.7125 46.2204 33.4901 52.2782 31.6624 58.481ZM3.96229 90.9064L3.84832 90.5459C3.91409 90.759 3.79213 90.3324 3.78256 90.2902L3.55908 89.3079C3.4068 88.5682 3.29698 87.7897 3.20791 86.9933L3.1131 86.001L3.08564 85.611L3.05531 85.0139C3.01317 84.1382 3.00264 83.2448 3.00519 82.3466C3.01253 80.5987 3.10096 78.8068 3.23505 77.0022L3.34136 75.7137L3.39914 75.0712L3.43522 74.7006C3.52397 73.8472 3.62315 72.9916 3.73276 72.1337C3.99773 70.0201 4.31793 67.8885 4.664 65.76C5.53811 60.3698 6.6852 55.0358 8.10006 49.7822C9.4962 44.5633 11.1806 39.4401 13.1442 34.4404C14.8403 30.1602 16.2255 26.8238 18.1793 22.7197C19.1371 20.7088 20.1494 18.7425 21.2173 16.8472L21.9835 15.5242L22.3733 14.8792L22.6351 14.4616C23.1711 13.6178 23.7301 12.8064 24.3009 12.0245C24.8379 11.2872 25.3975 10.5921 25.9664 9.93022L26.2458 9.61329L26.5701 9.2756L27.6236 8.24629C28.1885 7.71583 28.7783 7.2174 29.3907 6.753L29.67 6.54748L29.9436 6.37241L30.863 5.84098L31.6174 5.49741L31.9807 5.36109L32.0347 5.3476C32.5062 5.22034 32.9905 5.15781 33.4764 5.16146L33.7481 5.17426L33.7899 5.18187L34.3706 5.33445L34.921 5.5673L35.1841 5.71262L35.2498 5.74963C35.5909 6.00683 35.925 6.31589 36.2076 6.64609L36.6341 7.18964L36.7528 7.35675C36.6401 7.19275 36.8719 7.55224 36.9176 7.62732C37.4819 8.6387 37.9359 9.71769 38.2705 10.8426L38.3344 11.0554L38.3858 11.2481C36.1648 13.8438 34.094 16.5858 32.185 19.4584C29.4891 23.3951 27.0373 27.5214 24.8459 31.8102C22.4423 36.5471 20.3004 41.5487 18.2994 46.5901C17.3321 49.028 16.4059 51.4876 15.5002 53.9597C14.6976 56.1508 13.9557 58.3831 13.1253 60.5601C12.0718 63.3149 11.0263 66.0727 10.035 68.8559C8.80113 72.3185 7.65439 75.8292 6.68771 79.3739C5.65005 82.9155 4.95179 86.5634 4.60398 90.2601C4.55067 90.9778 4.53734 91.6983 4.56407 92.4177C4.33231 91.9293 4.13104 91.4242 3.96229 90.9064ZM30.8429 99.206L30.811 99.2433L30.7535 99.3032L30.3545 99.7256L29.4015 100.663L28.5807 101.385L28.1747 101.705L27.9869 101.839L27.3389 102.202L27.2112 102.257L26.8766 102.341L26.7358 102.35L26.6273 102.309L26.4565 102.131L26.3288 101.984L26.1126 101.432L26.0261 100.963L25.953 100.289C25.9316 99.6921 25.9476 99.069 25.9776 98.4458L26.0571 97.3421L26.0603 97.2982L26.1241 96.738C26.2266 95.8769 26.3604 95.0081 26.5053 94.1369C27.0161 91.0683 27.7258 87.9835 28.4422 84.9097C29.4481 80.5883 30.3918 76.2669 31.4521 71.9486C31.7432 70.7589 32.0422 69.571 32.3491 68.385L32.5113 67.7622L32.7581 66.828L32.7859 66.7221C36.4411 59.0345 39.2096 50.8887 41.0292 42.4684C42.0278 40.2599 43.1094 38.1331 44.2411 36.0561C44.6242 35.359 45.015 34.6788 45.4147 34.0055L45.944 33.1343L46.1244 32.8475L46.585 32.1358C47.5838 30.6111 48.6267 29.1709 49.7136 27.8151L50.5079 26.8549L50.9124 26.391L51.1311 26.146C51.5395 25.7077 51.9527 25.2904 52.3707 24.8939L52.4081 26.0308C52.453 27.7277 52.4565 29.4468 52.4186 31.1881C50.67 33.7994 49.0794 36.531 47.6571 39.3655C45.4759 43.696 43.5284 48.1599 41.8244 52.7349C39.0162 60.0913 36.7783 67.6885 35.1339 75.4476C34.3815 79.0504 33.758 82.658 33.3142 86.2172C32.8114 89.7278 32.6461 93.2856 32.821 96.8332L32.2502 97.5535C31.7885 98.1242 31.3184 98.6745 30.8429 99.206ZM44.8499 92.5976L44.0869 93.5138L43.6978 93.9587L43.5171 94.1594L43.4733 94.2078C42.9536 94.7693 42.4236 95.2921 41.8889 95.7859L41.0997 96.4706L40.7109 96.7792L40.3348 97.056C39.924 97.3222 39.4931 97.5501 39.0466 97.7372L38.8717 97.7988L38.7025 97.8362L38.1515 97.8895L37.7013 97.7694L37.5934 97.7224L37.4581 97.6251L37.0906 97.21C37.1864 97.3345 37.1165 97.1985 37.0312 97.0318C41.6981 89.5257 45.4551 81.4004 48.2097 72.8558C51.4083 63.3013 53.6275 53.3944 54.8274 43.3139C55.2628 39.7946 55.5779 36.2862 55.7497 32.8395L55.8908 32.6558L56.7023 31.6725L56.9784 31.3594L57.4286 30.8885C58.0438 30.2525 58.6736 29.6775 59.309 29.136L60.2948 28.3403L60.7966 27.9666L60.9422 27.8628L61.173 27.7088L61.3748 27.5784L61.4904 28.0417C61.9019 29.7676 62.2006 31.5229 62.3843 33.2945L62.518 34.6379L62.5576 35.1358L62.5895 35.5894C62.6534 36.5582 62.6927 37.5439 62.7134 38.5369C62.7501 40.2942 62.7224 42.0936 62.6269 43.917C62.5882 44.657 62.535 45.4015 62.4673 46.1507L62.4494 46.296L62.3479 47.0607L62.0768 48.8792C61.6937 51.3011 61.2225 53.6649 60.6833 55.9747L60.1406 57.0961C57.8072 61.9548 55.629 66.9591 53.5472 72.0057C51.3779 77.2609 49.3146 82.6248 47.5747 88.0855L47.0958 89.6328L46.3057 90.7244C45.831 91.3679 45.3412 91.9907 44.8499 92.5976ZM46.2779 92.5149C46.3338 92.3014 46.4643 91.7855 46.2779 92.5149ZM64.1957 78.165L63.9665 78.7054L63.6932 79.3352L62.9822 80.9229C62.4782 82.0301 61.9568 83.1226 61.4179 84.2004C60.8011 85.437 60.1039 86.6071 59.4175 87.7596L58.3266 89.5467L58.1147 89.8833L57.7695 90.4223L56.943 91.6914C55.9342 93.2138 54.8941 94.6891 53.8233 96.0907C53.3349 96.7317 52.8363 97.3494 52.3276 97.9438L51.9634 98.3631L51.9209 98.4116L51.1167 99.2257L50.4534 99.8197L49.9924 100.162L49.6249 100.356L49.4653 100.425L48.9143 100.494L48.7473 100.43L48.6691 100.347L48.6094 100.207L48.5513 99.8585L48.5423 99.7841L48.5379 99.4848C48.5379 99.1513 48.5554 98.8098 48.5826 98.4617L48.6739 97.7826C48.815 96.8228 49.0145 95.8516 49.2361 94.8853L49.418 94.1241L49.5346 93.6708L49.9355 92.2288L50.2723 91.0794C51.9997 88.2765 53.5597 85.3566 54.9426 82.3376C58.4171 74.7758 61.2061 66.8663 63.2705 58.7205C63.9291 57.369 64.604 56.0269 65.3261 54.7454L65.5793 54.3105L65.9803 53.7476C66.9517 52.4069 67.9711 51.1696 69.0067 50.0002L69.2398 49.7414L69.5169 49.4431L70.3728 48.555C71.0059 47.9101 71.6498 47.3015 72.2963 46.7212L72.3694 46.6569L72.3627 46.7493C72.3058 47.6142 72.235 48.4844 72.1529 49.3559L72.1328 49.5718L72.0792 50.077L71.9119 51.4672C71.682 53.286 71.3609 55.1118 70.9762 56.9487C70.7393 58.0904 70.4708 59.2322 70.1899 60.3708L69.9983 61.132C70.0842 60.7905 69.8706 61.6112 69.8646 61.632L69.2947 63.6844C68.5853 66.1575 67.7895 68.6126 66.9358 71.0397C66.0901 73.4478 65.17 75.8237 64.1957 78.165ZM81.8801 65.3707L81.4673 66.436C81.3892 66.5914 81.3184 66.751 81.2553 66.9142L80.8879 67.721C80.3553 68.8766 79.797 70.0111 79.222 71.128C78.694 72.1559 78.1446 73.1593 77.5824 74.1464L76.7274 75.6078L76.292 76.3247L76.1643 76.5323L75.9507 76.8641C74.7322 78.7664 73.4215 80.5973 72.0239 82.3491C70.7873 83.9294 69.4456 85.4095 68.0097 86.7777C66.8419 87.9139 65.6597 89.037 64.468 90.0373L64.2739 90.1943L64.4223 89.5328L64.5338 89.0765C64.4645 89.3581 64.6346 88.6976 64.6615 88.6021C64.8326 87.9693 65.0155 87.3444 65.2253 86.723C65.5001 85.912 65.8018 85.1076 66.1147 84.3115L66.6529 82.9698L66.9495 82.2608L67.0542 82.0055C67.5293 80.9018 68.0206 79.8092 68.5199 78.7186C70.9168 73.5149 73.5506 68.5306 76.3335 63.7352L77.387 61.9523L77.9179 61.0784L78.1845 60.6462L78.2569 60.5314C78.9895 59.3693 79.7392 58.2379 80.506 57.1372C80.7883 56.7324 81.0577 56.347 81.3252 55.9117C80.8674 56.6566 81.4619 55.7962 81.5873 55.6297L82.7567 54.1188L83.8237 52.8362L84.1598 52.4557L84.3555 52.2505C84.3488 53.1155 84.3048 53.9998 84.2368 54.8928L84.1972 55.3509C84.2195 55.0921 84.1637 55.6682 84.1525 55.7661L83.9609 57.1801C83.8109 58.1984 83.6152 59.226 83.3943 60.2504L83.1389 61.3444L83.029 61.7832L82.8333 62.4696C82.5515 63.4487 82.2303 64.4172 81.8801 65.3707ZM99.3024 65.306C99.2634 65.1493 99.2085 65.0507 99.3024 65.306Z" fill="#FF0000" stroke="#FF0000" stroke-width="2" mask="url(#path-1-inside-1_1_10)"/>
   </svg>
   
